<svg width="64" height="40" fill="none" xmlns="http://www.w3.org/2000/svg"><g clip-path="url(#clip0)"><path d="M41.138 40h7.484v-5.84h-7.484c-.662 0-1.31-.18-1.877-.522-.42-.27-.78-.623-1.06-1.036l-4.898-6.9a9.345 9.345 0 00-7.687-3.98h-8.442v5.84h8.442c.661.002 1.31.182 1.877.523.422.272.785.627 1.067 1.043l4.844 6.862a9.293 9.293 0 002.82 2.655 9.447 9.447 0 004.914 1.356z" fill="#ADADDB"/><path d="M.694 21.722h17.368v5.84H.694v-5.84z" fill="#ADADDB"/><path d="M11.597 2.695A9.205 9.205 0 0126.083 13.81l-7.982 13.746-7.976-13.738a9.198 9.198 0 011.472-11.122z" fill="#734BDA"/><path d="M13.054 14.588l10.093-.008.008-9.136-10.093.008-.008 9.136zM19.588 2.68v2.764h1.262l-.008-1.62-1.254-1.144zm0 1.152V2.68l-2.96.007v1.145h2.96z" fill="#fff"/><path d="M15.367 3.832v1.613h1.261V2.687l-1.261 1.145z" fill="#fff"/><path d="M47.843 40h11.753a.513.513 0 00.428-.225l2.89-4.447a.498.498 0 00-.42-.78h-14.65v5.453z" fill="#E0DAF7"/><path d="M38.856 5.693a12.71 12.71 0 0119.992 15.335L47.843 40 36.831 21.028a12.71 12.71 0 012.025-15.335z" fill="#3A3687"/><path d="M40.873 22.103l13.925-.015.016-12.602-13.933.008-.008 12.61zM49.892 5.67v3.808h1.736V7.251L49.893 5.67zm0 1.58V5.67h-4.089v1.58h4.089z" fill="#fff"/><path d="M44.066 7.259v2.227h1.745l-.008-3.816-1.737 1.589z" fill="#fff"/></g><defs><clipPath id="clip0"><path fill="#fff" transform="matrix(-1 0 0 1 64 0)" d="M0 0h64v40H0z"/></clipPath></defs></svg>